<mxfile host="Electron" agent="Mozilla/5.0 (X11; Linux x86_64) AppleWebKit/537.36 (KHTML, like Gecko) draw.io/28.0.6 Chrome/138.0.7204.100 Electron/37.2.3 Safari/537.36" version="28.0.6">
  <diagram name="Page-1" id="RfI_85nFWLLvPub6RW3C">
    <mxGraphModel dx="1106" dy="727" grid="1" gridSize="10" guides="1" tooltips="1" connect="1" arrows="1" fold="1" page="1" pageScale="1" pageWidth="850" pageHeight="1100" math="0" shadow="0">
      <root>
        <mxCell id="0" />
        <mxCell id="1" parent="0" />
        <mxCell id="wRrmuo3cYaEEEW8ZbbO_-88" value="" style="rounded=0;whiteSpace=wrap;html=1;dashed=1;dashPattern=1 4;" vertex="1" parent="1">
          <mxGeometry x="100" y="50" width="620" height="430" as="geometry" />
        </mxCell>
        <mxCell id="wRrmuo3cYaEEEW8ZbbO_-86" value="" style="rounded=0;whiteSpace=wrap;html=1;fillColor=#B3B3B3;fontColor=#333333;strokeColor=#000000;dashed=1;dashPattern=1 4;opacity=20;" vertex="1" parent="1">
          <mxGeometry x="310" y="270.03" width="390" height="190" as="geometry" />
        </mxCell>
        <mxCell id="wRrmuo3cYaEEEW8ZbbO_-83" value="" style="rounded=0;whiteSpace=wrap;html=1;fillColor=#B3B3B3;fontColor=#333333;strokeColor=#000000;dashed=1;dashPattern=1 4;opacity=20;" vertex="1" parent="1">
          <mxGeometry x="310" y="70" width="390" height="190" as="geometry" />
        </mxCell>
        <mxCell id="wRrmuo3cYaEEEW8ZbbO_-2" value="fetch" style="rounded=0;whiteSpace=wrap;html=1;fillColor=#dae8fc;strokeColor=#000000;" vertex="1" parent="1">
          <mxGeometry x="120" y="120" width="40" height="120" as="geometry" />
        </mxCell>
        <mxCell id="wRrmuo3cYaEEEW8ZbbO_-3" value="loop&lt;br&gt;unroll" style="rounded=0;whiteSpace=wrap;html=1;fillColor=#CCFF99;" vertex="1" parent="1">
          <mxGeometry x="160" y="120" width="40" height="120" as="geometry" />
        </mxCell>
        <mxCell id="wRrmuo3cYaEEEW8ZbbO_-4" value="dep&lt;br&gt;check" style="rounded=0;whiteSpace=wrap;html=1;fillColor=#d5e8d4;strokeColor=#000000;" vertex="1" parent="1">
          <mxGeometry x="200" y="120" width="40" height="120" as="geometry" />
        </mxCell>
        <mxCell id="wRrmuo3cYaEEEW8ZbbO_-7" value="RF&lt;br&gt;tag" style="rounded=0;whiteSpace=wrap;html=1;fillColor=#99CCFF;" vertex="1" parent="1">
          <mxGeometry x="340" y="120" width="40" height="120" as="geometry" />
        </mxCell>
        <mxCell id="wRrmuo3cYaEEEW8ZbbO_-9" value="RS" style="rounded=0;whiteSpace=wrap;html=1;fillColor=#d5e8d4;strokeColor=#000000;" vertex="1" parent="1">
          <mxGeometry x="380" y="120" width="40" height="30" as="geometry" />
        </mxCell>
        <mxCell id="wRrmuo3cYaEEEW8ZbbO_-10" value="RS" style="rounded=0;whiteSpace=wrap;html=1;fillColor=#d5e8d4;strokeColor=#000000;" vertex="1" parent="1">
          <mxGeometry x="380" y="150" width="40" height="30" as="geometry" />
        </mxCell>
        <mxCell id="wRrmuo3cYaEEEW8ZbbO_-11" value="RS" style="rounded=0;whiteSpace=wrap;html=1;fillColor=#d5e8d4;strokeColor=#000000;" vertex="1" parent="1">
          <mxGeometry x="380" y="180" width="40" height="30" as="geometry" />
        </mxCell>
        <mxCell id="wRrmuo3cYaEEEW8ZbbO_-15" value="exec" style="rounded=0;whiteSpace=wrap;html=1;fillColor=#f8cecc;strokeColor=#000000;" vertex="1" parent="1">
          <mxGeometry x="420" y="120" width="40" height="30" as="geometry" />
        </mxCell>
        <mxCell id="wRrmuo3cYaEEEW8ZbbO_-16" value="exec" style="rounded=0;whiteSpace=wrap;html=1;fillColor=#f8cecc;strokeColor=#000000;" vertex="1" parent="1">
          <mxGeometry x="420" y="150" width="40" height="30" as="geometry" />
        </mxCell>
        <mxCell id="wRrmuo3cYaEEEW8ZbbO_-17" value="exec" style="rounded=0;whiteSpace=wrap;html=1;fillColor=#f8cecc;strokeColor=#000000;" vertex="1" parent="1">
          <mxGeometry x="460" y="150" width="40" height="30" as="geometry" />
        </mxCell>
        <mxCell id="wRrmuo3cYaEEEW8ZbbO_-18" value="recv" style="rounded=0;whiteSpace=wrap;html=1;fillColor=#f8cecc;strokeColor=#000000;" vertex="1" parent="1">
          <mxGeometry x="420" y="180" width="40" height="30" as="geometry" />
        </mxCell>
        <mxCell id="wRrmuo3cYaEEEW8ZbbO_-19" value="exec" style="rounded=0;whiteSpace=wrap;html=1;fillColor=#f8cecc;strokeColor=#000000;" vertex="1" parent="1">
          <mxGeometry x="420" y="120" width="40" height="30" as="geometry" />
        </mxCell>
        <mxCell id="wRrmuo3cYaEEEW8ZbbO_-22" value="" style="endArrow=classic;html=1;rounded=0;edgeStyle=orthogonalEdgeStyle;entryX=0.649;entryY=-0.019;entryDx=0;entryDy=0;entryPerimeter=0;" edge="1" parent="1" target="wRrmuo3cYaEEEW8ZbbO_-3">
          <mxGeometry width="50" height="50" relative="1" as="geometry">
            <mxPoint x="560" y="90" as="sourcePoint" />
            <mxPoint x="100" y="100" as="targetPoint" />
            <Array as="points">
              <mxPoint x="186" y="90" />
            </Array>
          </mxGeometry>
        </mxCell>
        <mxCell id="wRrmuo3cYaEEEW8ZbbO_-24" value="" style="endArrow=classic;html=1;rounded=0;edgeStyle=orthogonalEdgeStyle;exitX=1;exitY=0.5;exitDx=0;exitDy=0;" edge="1" parent="1" source="wRrmuo3cYaEEEW8ZbbO_-19">
          <mxGeometry width="50" height="50" relative="1" as="geometry">
            <mxPoint x="420" y="400" as="sourcePoint" />
            <mxPoint x="480" y="90" as="targetPoint" />
            <Array as="points">
              <mxPoint x="480" y="135" />
              <mxPoint x="480" y="110" />
            </Array>
          </mxGeometry>
        </mxCell>
        <mxCell id="wRrmuo3cYaEEEW8ZbbO_-25" value="" style="endArrow=classic;html=1;rounded=0;edgeStyle=orthogonalEdgeStyle;exitX=1;exitY=0.5;exitDx=0;exitDy=0;" edge="1" parent="1">
          <mxGeometry width="50" height="50" relative="1" as="geometry">
            <mxPoint x="500" y="165" as="sourcePoint" />
            <mxPoint x="520" y="90" as="targetPoint" />
            <Array as="points">
              <mxPoint x="520" y="165" />
            </Array>
          </mxGeometry>
        </mxCell>
        <mxCell id="wRrmuo3cYaEEEW8ZbbO_-26" value="" style="endArrow=classic;html=1;rounded=0;edgeStyle=orthogonalEdgeStyle;exitX=1;exitY=0.25;exitDx=0;exitDy=0;" edge="1" parent="1" source="wRrmuo3cYaEEEW8ZbbO_-18">
          <mxGeometry width="50" height="50" relative="1" as="geometry">
            <mxPoint x="540" y="195" as="sourcePoint" />
            <mxPoint x="560" y="90" as="targetPoint" />
            <Array as="points">
              <mxPoint x="560" y="188" />
            </Array>
          </mxGeometry>
        </mxCell>
        <mxCell id="wRrmuo3cYaEEEW8ZbbO_-27" value="" style="endArrow=classic;html=1;rounded=0;entryX=0.5;entryY=0;entryDx=0;entryDy=0;" edge="1" parent="1" target="wRrmuo3cYaEEEW8ZbbO_-7">
          <mxGeometry width="50" height="50" relative="1" as="geometry">
            <mxPoint x="360" y="90" as="sourcePoint" />
            <mxPoint x="470" y="350" as="targetPoint" />
          </mxGeometry>
        </mxCell>
        <mxCell id="wRrmuo3cYaEEEW8ZbbO_-28" value="" style="endArrow=classic;html=1;rounded=0;entryX=0.5;entryY=0;entryDx=0;entryDy=0;" edge="1" parent="1">
          <mxGeometry width="50" height="50" relative="1" as="geometry">
            <mxPoint x="399.5" y="90" as="sourcePoint" />
            <mxPoint x="399.5" y="120" as="targetPoint" />
          </mxGeometry>
        </mxCell>
        <mxCell id="wRrmuo3cYaEEEW8ZbbO_-29" value="RS" style="rounded=0;whiteSpace=wrap;html=1;fillColor=#d5e8d4;strokeColor=#000000;" vertex="1" parent="1">
          <mxGeometry x="380" y="210" width="40" height="30" as="geometry" />
        </mxCell>
        <mxCell id="wRrmuo3cYaEEEW8ZbbO_-30" value="send" style="rounded=0;whiteSpace=wrap;html=1;fillColor=#f8cecc;strokeColor=#000000;" vertex="1" parent="1">
          <mxGeometry x="420" y="210" width="40" height="30" as="geometry" />
        </mxCell>
        <mxCell id="wRrmuo3cYaEEEW8ZbbO_-31" value="Network&lt;br&gt;Node" style="rounded=0;whiteSpace=wrap;html=1;fillColor=#ffe6cc;strokeColor=#000000;" vertex="1" parent="1">
          <mxGeometry x="620" y="180" width="50" height="60" as="geometry" />
        </mxCell>
        <mxCell id="wRrmuo3cYaEEEW8ZbbO_-32" value="" style="endArrow=classic;html=1;rounded=0;entryX=1;entryY=0.5;entryDx=0;entryDy=0;exitX=0;exitY=0.25;exitDx=0;exitDy=0;" edge="1" parent="1" source="wRrmuo3cYaEEEW8ZbbO_-31" target="wRrmuo3cYaEEEW8ZbbO_-18">
          <mxGeometry width="50" height="50" relative="1" as="geometry">
            <mxPoint x="618" y="195" as="sourcePoint" />
            <mxPoint x="470" y="350" as="targetPoint" />
          </mxGeometry>
        </mxCell>
        <mxCell id="wRrmuo3cYaEEEW8ZbbO_-33" value="" style="endArrow=classic;html=1;rounded=0;entryX=0;entryY=0.75;entryDx=0;entryDy=0;exitX=1;exitY=0.5;exitDx=0;exitDy=0;" edge="1" parent="1" source="wRrmuo3cYaEEEW8ZbbO_-30" target="wRrmuo3cYaEEEW8ZbbO_-31">
          <mxGeometry width="50" height="50" relative="1" as="geometry">
            <mxPoint x="670" y="370" as="sourcePoint" />
            <mxPoint x="512" y="369" as="targetPoint" />
          </mxGeometry>
        </mxCell>
        <mxCell id="wRrmuo3cYaEEEW8ZbbO_-34" value="exec" style="rounded=0;whiteSpace=wrap;html=1;fillColor=#f8cecc;strokeColor=#000000;" vertex="1" parent="1">
          <mxGeometry x="420" y="320.03" width="40" height="30" as="geometry" />
        </mxCell>
        <mxCell id="wRrmuo3cYaEEEW8ZbbO_-35" value="exec" style="rounded=0;whiteSpace=wrap;html=1;fillColor=#f8cecc;strokeColor=#000000;" vertex="1" parent="1">
          <mxGeometry x="420" y="350.03" width="40" height="30" as="geometry" />
        </mxCell>
        <mxCell id="wRrmuo3cYaEEEW8ZbbO_-36" value="exec" style="rounded=0;whiteSpace=wrap;html=1;fillColor=#f8cecc;strokeColor=#000000;" vertex="1" parent="1">
          <mxGeometry x="460" y="350.03" width="40" height="30" as="geometry" />
        </mxCell>
        <mxCell id="wRrmuo3cYaEEEW8ZbbO_-37" value="recv" style="rounded=0;whiteSpace=wrap;html=1;fillColor=#f8cecc;strokeColor=#000000;" vertex="1" parent="1">
          <mxGeometry x="420" y="380.03" width="40" height="30" as="geometry" />
        </mxCell>
        <mxCell id="wRrmuo3cYaEEEW8ZbbO_-38" value="exec" style="rounded=0;whiteSpace=wrap;html=1;fillColor=#f8cecc;strokeColor=#000000;" vertex="1" parent="1">
          <mxGeometry x="420" y="320.03" width="40" height="30" as="geometry" />
        </mxCell>
        <mxCell id="wRrmuo3cYaEEEW8ZbbO_-42" value="send" style="rounded=0;whiteSpace=wrap;html=1;fillColor=#f8cecc;strokeColor=#000000;" vertex="1" parent="1">
          <mxGeometry x="420" y="410.03" width="40" height="30" as="geometry" />
        </mxCell>
        <mxCell id="wRrmuo3cYaEEEW8ZbbO_-43" value="Network&lt;br&gt;Node" style="rounded=0;whiteSpace=wrap;html=1;fillColor=#ffe6cc;strokeColor=#000000;" vertex="1" parent="1">
          <mxGeometry x="620" y="380.03" width="50" height="60" as="geometry" />
        </mxCell>
        <mxCell id="wRrmuo3cYaEEEW8ZbbO_-44" value="" style="endArrow=classic;html=1;rounded=0;entryX=1;entryY=0.5;entryDx=0;entryDy=0;exitX=0;exitY=0.25;exitDx=0;exitDy=0;" edge="1" parent="1" source="wRrmuo3cYaEEEW8ZbbO_-43" target="wRrmuo3cYaEEEW8ZbbO_-37">
          <mxGeometry width="50" height="50" relative="1" as="geometry">
            <mxPoint x="618" y="395.03" as="sourcePoint" />
            <mxPoint x="470" y="550.03" as="targetPoint" />
          </mxGeometry>
        </mxCell>
        <mxCell id="wRrmuo3cYaEEEW8ZbbO_-45" value="" style="endArrow=classic;html=1;rounded=0;entryX=0;entryY=0.75;entryDx=0;entryDy=0;exitX=1;exitY=0.5;exitDx=0;exitDy=0;" edge="1" parent="1" source="wRrmuo3cYaEEEW8ZbbO_-42" target="wRrmuo3cYaEEEW8ZbbO_-43">
          <mxGeometry width="50" height="50" relative="1" as="geometry">
            <mxPoint x="670" y="570.03" as="sourcePoint" />
            <mxPoint x="512" y="569.03" as="targetPoint" />
          </mxGeometry>
        </mxCell>
        <mxCell id="wRrmuo3cYaEEEW8ZbbO_-46" value="RF&lt;br&gt;tag" style="rounded=0;whiteSpace=wrap;html=1;fillColor=#99CCFF;" vertex="1" parent="1">
          <mxGeometry x="340" y="320.03" width="40" height="120" as="geometry" />
        </mxCell>
        <mxCell id="wRrmuo3cYaEEEW8ZbbO_-47" value="RS" style="rounded=0;whiteSpace=wrap;html=1;fillColor=#d5e8d4;strokeColor=#000000;" vertex="1" parent="1">
          <mxGeometry x="380" y="320.03" width="40" height="30" as="geometry" />
        </mxCell>
        <mxCell id="wRrmuo3cYaEEEW8ZbbO_-48" value="RS" style="rounded=0;whiteSpace=wrap;html=1;fillColor=#d5e8d4;strokeColor=#000000;" vertex="1" parent="1">
          <mxGeometry x="380" y="350.03" width="40" height="30" as="geometry" />
        </mxCell>
        <mxCell id="wRrmuo3cYaEEEW8ZbbO_-49" value="RS" style="rounded=0;whiteSpace=wrap;html=1;fillColor=#d5e8d4;strokeColor=#000000;" vertex="1" parent="1">
          <mxGeometry x="380" y="380.03" width="40" height="30" as="geometry" />
        </mxCell>
        <mxCell id="wRrmuo3cYaEEEW8ZbbO_-50" value="RS" style="rounded=0;whiteSpace=wrap;html=1;fillColor=#d5e8d4;strokeColor=#000000;" vertex="1" parent="1">
          <mxGeometry x="380" y="410.03" width="40" height="30" as="geometry" />
        </mxCell>
        <mxCell id="wRrmuo3cYaEEEW8ZbbO_-51" value="" style="endArrow=classic;html=1;rounded=0;edgeStyle=orthogonalEdgeStyle;" edge="1" parent="1">
          <mxGeometry width="50" height="50" relative="1" as="geometry">
            <mxPoint x="560" y="290" as="sourcePoint" />
            <mxPoint x="180" y="240" as="targetPoint" />
            <Array as="points">
              <mxPoint x="180" y="290" />
            </Array>
          </mxGeometry>
        </mxCell>
        <mxCell id="wRrmuo3cYaEEEW8ZbbO_-52" value="" style="endArrow=classic;html=1;rounded=0;entryX=0.5;entryY=0;entryDx=0;entryDy=0;" edge="1" parent="1">
          <mxGeometry width="50" height="50" relative="1" as="geometry">
            <mxPoint x="360" y="290.03" as="sourcePoint" />
            <mxPoint x="360" y="320.03" as="targetPoint" />
          </mxGeometry>
        </mxCell>
        <mxCell id="wRrmuo3cYaEEEW8ZbbO_-53" value="" style="endArrow=classic;html=1;rounded=0;entryX=0.5;entryY=0;entryDx=0;entryDy=0;fillColor=#d5e8d4;strokeColor=#000000;" edge="1" parent="1">
          <mxGeometry width="50" height="50" relative="1" as="geometry">
            <mxPoint x="399.5" y="290.03" as="sourcePoint" />
            <mxPoint x="399.5" y="320.03" as="targetPoint" />
          </mxGeometry>
        </mxCell>
        <mxCell id="wRrmuo3cYaEEEW8ZbbO_-54" value="" style="endArrow=classic;html=1;rounded=0;edgeStyle=orthogonalEdgeStyle;entryX=0.649;entryY=-0.019;entryDx=0;entryDy=0;entryPerimeter=0;exitX=0.25;exitY=0;exitDx=0;exitDy=0;" edge="1" parent="1" source="wRrmuo3cYaEEEW8ZbbO_-3">
          <mxGeometry width="50" height="50" relative="1" as="geometry">
            <mxPoint x="494" y="92" as="sourcePoint" />
            <mxPoint x="140" y="120" as="targetPoint" />
            <Array as="points">
              <mxPoint x="170" y="100" />
              <mxPoint x="140" y="100" />
            </Array>
          </mxGeometry>
        </mxCell>
        <mxCell id="wRrmuo3cYaEEEW8ZbbO_-55" value="" style="endArrow=classic;startArrow=classic;html=1;rounded=0;entryX=0.5;entryY=1;entryDx=0;entryDy=0;fillColor=#ffe6cc;strokeColor=#000000;" edge="1" parent="1" target="wRrmuo3cYaEEEW8ZbbO_-31">
          <mxGeometry width="50" height="50" relative="1" as="geometry">
            <mxPoint x="645" y="380" as="sourcePoint" />
            <mxPoint x="645" y="269.9999999999999" as="targetPoint" />
          </mxGeometry>
        </mxCell>
        <mxCell id="wRrmuo3cYaEEEW8ZbbO_-56" value="" style="endArrow=classic;startArrow=classic;html=1;rounded=0;entryX=1;entryY=0.5;entryDx=0;entryDy=0;" edge="1" parent="1" target="wRrmuo3cYaEEEW8ZbbO_-31">
          <mxGeometry width="50" height="50" relative="1" as="geometry">
            <mxPoint x="740" y="210" as="sourcePoint" />
            <mxPoint x="720" y="220" as="targetPoint" />
          </mxGeometry>
        </mxCell>
        <mxCell id="wRrmuo3cYaEEEW8ZbbO_-57" value="" style="endArrow=classic;startArrow=classic;html=1;rounded=0;entryX=1;entryY=0.5;entryDx=0;entryDy=0;" edge="1" parent="1">
          <mxGeometry width="50" height="50" relative="1" as="geometry">
            <mxPoint x="740" y="410.03" as="sourcePoint" />
            <mxPoint x="670" y="410.03" as="targetPoint" />
          </mxGeometry>
        </mxCell>
        <mxCell id="wRrmuo3cYaEEEW8ZbbO_-58" value="" style="endArrow=classic;html=1;rounded=0;edgeStyle=orthogonalEdgeStyle;exitX=1;exitY=0.5;exitDx=0;exitDy=0;fillColor=#f8cecc;strokeColor=#000000;" edge="1" parent="1">
          <mxGeometry width="50" height="50" relative="1" as="geometry">
            <mxPoint x="460" y="335" as="sourcePoint" />
            <mxPoint x="480" y="290" as="targetPoint" />
            <Array as="points">
              <mxPoint x="480" y="335" />
              <mxPoint x="480" y="310" />
            </Array>
          </mxGeometry>
        </mxCell>
        <mxCell id="wRrmuo3cYaEEEW8ZbbO_-59" value="" style="endArrow=classic;html=1;rounded=0;edgeStyle=orthogonalEdgeStyle;exitX=1;exitY=0.5;exitDx=0;exitDy=0;" edge="1" parent="1">
          <mxGeometry width="50" height="50" relative="1" as="geometry">
            <mxPoint x="500" y="365" as="sourcePoint" />
            <mxPoint x="520" y="290" as="targetPoint" />
            <Array as="points">
              <mxPoint x="520" y="365" />
            </Array>
          </mxGeometry>
        </mxCell>
        <mxCell id="wRrmuo3cYaEEEW8ZbbO_-60" value="" style="endArrow=classic;html=1;rounded=0;edgeStyle=orthogonalEdgeStyle;exitX=1;exitY=0.25;exitDx=0;exitDy=0;" edge="1" parent="1">
          <mxGeometry width="50" height="50" relative="1" as="geometry">
            <mxPoint x="460" y="388" as="sourcePoint" />
            <mxPoint x="560" y="290" as="targetPoint" />
            <Array as="points">
              <mxPoint x="560" y="388" />
            </Array>
          </mxGeometry>
        </mxCell>
        <mxCell id="wRrmuo3cYaEEEW8ZbbO_-61" value="" style="endArrow=classic;html=1;rounded=0;edgeStyle=orthogonalEdgeStyle;exitX=1;exitY=0.5;exitDx=0;exitDy=0;entryX=0;entryY=0.5;entryDx=0;entryDy=0;" edge="1" parent="1" source="wRrmuo3cYaEEEW8ZbbO_-62" target="wRrmuo3cYaEEEW8ZbbO_-67">
          <mxGeometry width="50" height="50" relative="1" as="geometry">
            <mxPoint x="260" y="135" as="sourcePoint" />
            <mxPoint x="280" y="90" as="targetPoint" />
            <Array as="points" />
          </mxGeometry>
        </mxCell>
        <mxCell id="wRrmuo3cYaEEEW8ZbbO_-62" value="" style="rounded=0;whiteSpace=wrap;html=1;fillColor=#d5e8d4;strokeColor=#000000;" vertex="1" parent="1">
          <mxGeometry x="240" y="120" width="10" height="30" as="geometry" />
        </mxCell>
        <mxCell id="wRrmuo3cYaEEEW8ZbbO_-64" value="" style="rounded=0;whiteSpace=wrap;html=1;fillColor=#d5e8d4;strokeColor=#000000;" vertex="1" parent="1">
          <mxGeometry x="240" y="150" width="10" height="30" as="geometry" />
        </mxCell>
        <mxCell id="wRrmuo3cYaEEEW8ZbbO_-65" value="" style="rounded=0;whiteSpace=wrap;html=1;fillColor=#d5e8d4;strokeColor=#000000;" vertex="1" parent="1">
          <mxGeometry x="240" y="180" width="10" height="30" as="geometry" />
        </mxCell>
        <mxCell id="wRrmuo3cYaEEEW8ZbbO_-66" value="" style="rounded=0;whiteSpace=wrap;html=1;fillColor=#d5e8d4;strokeColor=#000000;" vertex="1" parent="1">
          <mxGeometry x="240" y="210" width="10" height="30" as="geometry" />
        </mxCell>
        <mxCell id="wRrmuo3cYaEEEW8ZbbO_-67" value="" style="rounded=0;whiteSpace=wrap;html=1;fillColor=#99CCFF;strokeColor=#000000;" vertex="1" parent="1">
          <mxGeometry x="330" y="120" width="10" height="30" as="geometry" />
        </mxCell>
        <mxCell id="wRrmuo3cYaEEEW8ZbbO_-68" value="" style="rounded=0;whiteSpace=wrap;html=1;fillColor=#99CCFF;strokeColor=#000000;" vertex="1" parent="1">
          <mxGeometry x="330" y="150" width="10" height="30" as="geometry" />
        </mxCell>
        <mxCell id="wRrmuo3cYaEEEW8ZbbO_-69" value="" style="rounded=0;whiteSpace=wrap;html=1;fillColor=#99CCFF;strokeColor=#000000;" vertex="1" parent="1">
          <mxGeometry x="330" y="180" width="10" height="30" as="geometry" />
        </mxCell>
        <mxCell id="wRrmuo3cYaEEEW8ZbbO_-70" value="" style="rounded=0;whiteSpace=wrap;html=1;fillColor=#99CCFF;strokeColor=#000000;" vertex="1" parent="1">
          <mxGeometry x="330" y="210" width="10" height="30" as="geometry" />
        </mxCell>
        <mxCell id="wRrmuo3cYaEEEW8ZbbO_-71" value="" style="rounded=0;whiteSpace=wrap;html=1;fillColor=#99CCFF;strokeColor=#000000;" vertex="1" parent="1">
          <mxGeometry x="330" y="320.03" width="10" height="30" as="geometry" />
        </mxCell>
        <mxCell id="wRrmuo3cYaEEEW8ZbbO_-72" value="" style="rounded=0;whiteSpace=wrap;html=1;fillColor=#99CCFF;strokeColor=#000000;" vertex="1" parent="1">
          <mxGeometry x="330" y="350.03" width="10" height="30" as="geometry" />
        </mxCell>
        <mxCell id="wRrmuo3cYaEEEW8ZbbO_-73" value="" style="rounded=0;whiteSpace=wrap;html=1;fillColor=#99CCFF;strokeColor=#000000;" vertex="1" parent="1">
          <mxGeometry x="330" y="380.03" width="10" height="30" as="geometry" />
        </mxCell>
        <mxCell id="wRrmuo3cYaEEEW8ZbbO_-74" value="" style="rounded=0;whiteSpace=wrap;html=1;fillColor=#99CCFF;strokeColor=#000000;" vertex="1" parent="1">
          <mxGeometry x="330" y="410.03" width="10" height="30" as="geometry" />
        </mxCell>
        <mxCell id="wRrmuo3cYaEEEW8ZbbO_-75" value="" style="endArrow=classic;html=1;rounded=0;edgeStyle=orthogonalEdgeStyle;exitX=1;exitY=0.5;exitDx=0;exitDy=0;entryX=0;entryY=0.5;entryDx=0;entryDy=0;" edge="1" parent="1" source="wRrmuo3cYaEEEW8ZbbO_-62" target="wRrmuo3cYaEEEW8ZbbO_-71">
          <mxGeometry width="50" height="50" relative="1" as="geometry">
            <mxPoint x="250" y="160" as="sourcePoint" />
            <mxPoint x="310" y="160" as="targetPoint" />
            <Array as="points">
              <mxPoint x="290" y="135" />
              <mxPoint x="290" y="335" />
            </Array>
          </mxGeometry>
        </mxCell>
        <mxCell id="wRrmuo3cYaEEEW8ZbbO_-76" value="" style="endArrow=classic;html=1;rounded=0;edgeStyle=orthogonalEdgeStyle;entryX=0;entryY=0.5;entryDx=0;entryDy=0;exitX=1;exitY=0.5;exitDx=0;exitDy=0;" edge="1" parent="1" source="wRrmuo3cYaEEEW8ZbbO_-64" target="wRrmuo3cYaEEEW8ZbbO_-68">
          <mxGeometry width="50" height="50" relative="1" as="geometry">
            <mxPoint x="270" y="190" as="sourcePoint" />
            <mxPoint x="310" y="170" as="targetPoint" />
            <Array as="points">
              <mxPoint x="280" y="165" />
              <mxPoint x="280" y="165" />
            </Array>
          </mxGeometry>
        </mxCell>
        <mxCell id="wRrmuo3cYaEEEW8ZbbO_-77" value="" style="endArrow=classic;html=1;rounded=0;edgeStyle=orthogonalEdgeStyle;exitX=1;exitY=0.5;exitDx=0;exitDy=0;entryX=0;entryY=0.5;entryDx=0;entryDy=0;" edge="1" parent="1" source="wRrmuo3cYaEEEW8ZbbO_-64" target="wRrmuo3cYaEEEW8ZbbO_-72">
          <mxGeometry width="50" height="50" relative="1" as="geometry">
            <mxPoint x="250" y="160" as="sourcePoint" />
            <mxPoint x="310" y="330" as="targetPoint" />
            <Array as="points">
              <mxPoint x="280" y="165" />
              <mxPoint x="280" y="365" />
            </Array>
          </mxGeometry>
        </mxCell>
        <mxCell id="wRrmuo3cYaEEEW8ZbbO_-78" value="" style="endArrow=classic;html=1;rounded=0;edgeStyle=orthogonalEdgeStyle;entryX=0;entryY=0.5;entryDx=0;entryDy=0;exitX=1;exitY=0.5;exitDx=0;exitDy=0;" edge="1" parent="1" target="wRrmuo3cYaEEEW8ZbbO_-69">
          <mxGeometry width="50" height="50" relative="1" as="geometry">
            <mxPoint x="250" y="194.82999999999998" as="sourcePoint" />
            <mxPoint x="310" y="194.82999999999998" as="targetPoint" />
            <Array as="points" />
          </mxGeometry>
        </mxCell>
        <mxCell id="wRrmuo3cYaEEEW8ZbbO_-79" value="" style="endArrow=classic;html=1;rounded=0;edgeStyle=orthogonalEdgeStyle;entryX=0;entryY=0.5;entryDx=0;entryDy=0;exitX=1;exitY=0.5;exitDx=0;exitDy=0;" edge="1" parent="1" target="wRrmuo3cYaEEEW8ZbbO_-70">
          <mxGeometry width="50" height="50" relative="1" as="geometry">
            <mxPoint x="250" y="224.82999999999998" as="sourcePoint" />
            <mxPoint x="310" y="224.82999999999998" as="targetPoint" />
            <Array as="points" />
          </mxGeometry>
        </mxCell>
        <mxCell id="wRrmuo3cYaEEEW8ZbbO_-80" value="" style="endArrow=classic;html=1;rounded=0;edgeStyle=orthogonalEdgeStyle;entryX=0;entryY=0.5;entryDx=0;entryDy=0;exitX=1;exitY=0.5;exitDx=0;exitDy=0;" edge="1" parent="1" source="wRrmuo3cYaEEEW8ZbbO_-65" target="wRrmuo3cYaEEEW8ZbbO_-73">
          <mxGeometry width="50" height="50" relative="1" as="geometry">
            <mxPoint x="270" y="180" as="sourcePoint" />
            <mxPoint x="310" y="365" as="targetPoint" />
            <Array as="points">
              <mxPoint x="270" y="195" />
              <mxPoint x="270" y="395" />
            </Array>
          </mxGeometry>
        </mxCell>
        <mxCell id="wRrmuo3cYaEEEW8ZbbO_-81" value="" style="endArrow=classic;html=1;rounded=0;edgeStyle=orthogonalEdgeStyle;entryX=0.1;entryY=0.432;entryDx=0;entryDy=0;exitX=1;exitY=0.5;exitDx=0;exitDy=0;entryPerimeter=0;" edge="1" parent="1" source="wRrmuo3cYaEEEW8ZbbO_-66" target="wRrmuo3cYaEEEW8ZbbO_-74">
          <mxGeometry width="50" height="50" relative="1" as="geometry">
            <mxPoint x="240" y="230" as="sourcePoint" />
            <mxPoint x="300" y="400" as="targetPoint" />
            <Array as="points">
              <mxPoint x="260" y="225" />
              <mxPoint x="260" y="423" />
            </Array>
          </mxGeometry>
        </mxCell>
        <mxCell id="wRrmuo3cYaEEEW8ZbbO_-85" value="Amlet" style="text;html=1;align=center;verticalAlign=middle;whiteSpace=wrap;rounded=0;" vertex="1" parent="1">
          <mxGeometry x="560" y="130" width="60" height="30" as="geometry" />
        </mxCell>
        <mxCell id="wRrmuo3cYaEEEW8ZbbO_-87" value="Amlet" style="text;html=1;align=center;verticalAlign=middle;whiteSpace=wrap;rounded=0;" vertex="1" parent="1">
          <mxGeometry x="560" y="330" width="60" height="30" as="geometry" />
        </mxCell>
        <mxCell id="wRrmuo3cYaEEEW8ZbbO_-90" value="Bamlet" style="text;html=1;align=center;verticalAlign=middle;whiteSpace=wrap;rounded=0;" vertex="1" parent="1">
          <mxGeometry x="140" y="320.03" width="60" height="30" as="geometry" />
        </mxCell>
      </root>
    </mxGraphModel>
  </diagram>
</mxfile>
